<svg version="1.0" xmlns="http://www.w3.org/2000/svg" width="400" height="400" viewBox="0 0 300 300"><path d="M79.1 6.2c-4 12.6-7.7 30.5-7.3 35.8.8 11.1 1.2 52.8.5 53.8s-1.8.9-5.4-.2c-2.4-.8-8.2-2.2-12.9-3-11.4-2.1-19.5-5.5-19.5-8.1 0-1.1-.7-2-1.5-2-.9 0-1.4.7-1.2 1.8.2.9-.4 2-1.2 2.3-1.9.7-13.8-2.3-14.8-3.9-.5-.7-.6-2.9-.3-4.9.3-2 .1-4-.5-4.3-2-1.2-2.7.5-2 5l.7 4.5H0v217h2.3c1.3 0 2.7-.4 3.2-.9.6-.6 5.1-.6 11.5-.1 5.8.5 44.6.9 86.3.9 64.1 0 75.8-.2 75.4-1.3-.3-.8-.3-1.7 0-2 1-1 1.2-5.7.2-5.1-.5.4-.9.2-.9-.4 0-.5.4-1.2.9-1.6.6-.3 1-3.1.9-6.3 0-3.1.3-7.3.6-9.2 1.2-7.2 1.8-12.6 1.9-17.2.1-2.7.4-4.8.8-4.8.3 0 .4-1.1.1-2.5-.2-1.4.1-3.2.8-4 .6-.8.9-2.3.5-3.5-.4-1.3 0-3.1.9-4.5.9-1.3 1.6-3.1 1.6-4 0-.9.5-1.3 1-1 .6.4 1.6.2 2.3-.3.7-.6 4.1-1.7 7.7-2.6 6.1-1.5 7-1.5 14 .2 6.2 1.6 7.6 2.2 7.8 4 .2 1.2.7 2.2 1.1 2.2 1.6 0 8-7.3 7.3-8.4-.3-.6-.5-3.8-.3-7.1.2-3.7-.1-5.6-.7-5-1.2 1.4-3.5 12.2-2.8 13.4.7 1-1.2 2.7-2 1.9-.2-.3.2-4 1.1-8.3.8-4.3 1.2-8.9.8-10.3-.5-2-.3-2.4 1-1.9 2.2.8 2.8-1.7 1-4.2-2.1-3.1-3.8-2-3.8 2.5 0 3.6-.2 3.9-3 4.2-1.6.2-6.2-.4-10.1-1.4-5.9-1.4-7.2-2.2-8.3-4.5-.8-1.9-1.7-2.5-3-2.2-1 .2-2.5-.2-3.3-1-1.3-1.4-4.1-.9-3.9.7.3 1.8 0 2-.9.6-.6-1-.4-2 .7-3.3 1.6-1.7 1.6-1.7 0-1.1-2.4.9-2.1-.7.7-3.4 1.4-1.3 2.7-1.8 3.1-1.3.3.6 2.1 1 3.9.9 1.9-.1 5.3.9 7.6 2.1 4.2 2.2 4.2 1.9.8-3.1-1.9-2.8-2.4-5.8-.9-5.8.6 0 2.2-1.1 3.7-2.5s3.3-2.5 4.1-2.5c1.9 0 8.3-2.9 10.5-4.8 1-.8 1.8-2.2 1.8-3 0-1.3-.2-1.3-1.7 0-2.6 2.2-5.1 2.9-5.7 1.5-.3-.9-.5-.9-.5 0-.1.7-.6 1.3-1.2 1.3s-.9-.7-.6-1.4c.4-1 .1-1.3-.9-.9-.8.3-2.1 0-2.9-.7-.8-.7-1.5-.9-1.6-.4 0 .5-.4-.1-.9-1.2-.7-1.8-1.6-2.1-4.9-1.9-2.9.2-4.1-.2-4.1-1.1 0-.8-.7-1.4-1.5-1.4s-1.5-.7-1.5-1.6c0-1-.5-1.4-1.5-1-1.8.6-3.8-3.4-2.9-5.8.4-1-.1-1.2-2-.9-2 .4-2.4.1-2.2-1.3.2-1.1-.2-2.5-.8-3.3-.9-1.2-.8-1.4.5-.9 1.1.4 1.5 0 1.4-1.3-.2-2.3-1.5-3.8-1.5-1.7 0 .9-.6 2.1-1.4 2.7-2 1.7-3.2-2.4-1.5-4.7.7-.9.9-1.4.5-1-.5.4-1.5.3-2.3-.4-.7-.6-1.7-.8-2-.4-.4.4-.1 1.2.7 1.7 1.3.9 1.2 1-.2.6-2.2-.7-3 .3-1.6 2s.6 2.5-1.6 1.7c-.9-.4-1.5-1.3-1.2-2 .6-1.6-1-1.9-1.9-.4-.3.5-1.1 1-1.8 1-.6 0 0-.8 1.3-1.7 1.4-1 2.9-1.7 3.4-1.5.5.2.6-.4.3-1.2-.3-.8-.1-1.6.6-1.9.6-.2-.6-.4-2.7-.5-3-.1-3.9.3-4.3 1.8-1 3.7-2.1 2-1.7-2.8.2-2.6.1-3.8-.2-2.7-1.2 4.6-1.5 5-2.3 3.6-.6-.9-1.1-1-1.5-.2-1.1 1.7-2.7 1.3-2.5-.7.3-3.6 0-4.5-1.4-3.3-1.9 1.5-2.9.3-1.6-2 .9-1.7.7-1.8-1.6-.9-1.6.6-2.5.6-2.5 0s.6-1 1.4-1c2.1 0 2.6-2.3 1-4.5-1.4-1.8-1.4-1.8-1.4.2 0 1.1-.7 2.4-1.6 2.7-2.2.9-2.4.8-2.4-1 0-1.3-.3-1.4-1.5-.4-1.2 1-1.6.8-2.5-1.5-1.1-2.8-.5-4.9 1.1-3.9.5.3.6 1 .3 1.6-.4.7-.2.8.5.4.6-.4 1.8-.3 2.5.3 1.1.9 1.5.5 1.9-1.7.3-1.6.3-4 0-5.3l-.5-2.4 1.8 2.5c1 1.4 1.8 2.8 1.6 3.2-.1.5.3.8.8.8s.9.3.7.8c-.1.4.2.8.8 1 .5.2 1.1-.1 1.3-.7.2-.6-.1-1.1-.7-1.1s-1.1-.5-1.1-1.2c0-.6-.7-1.9-1.6-2.9-1.3-1.4-1.3-2.1-.3-3.7 1.1-1.8 1-2.4-.4-4-.9-1-1.4-2.1-1.1-2.5.4-.3.2-1.9-.4-3.6-.8-2.2-.7-3.1.1-3.4.8-.3.7-.9-.4-1.8-1.5-1.3-5.6-14.4-5.1-16.2.1-.4-.2-.7-.7-.7-.5 0-1.2-2.3-1.5-5.2-.5-3.2-1-4.7-1.5-3.9-.6 1-1 .8-1.6-.6-1.7-3.9-1.4-6.3.6-6.3 1 0 2-.5 2-1 .3-1.9.5-2.5 2.1-5.5 1.5-2.9 3.3-9.3 3-10.7-.1-.3.5-1.1 1.3-1.8.7-.6 1.2-1.7.9-2.4-.6-1.5 8-10.8 10.9-11.9 1-.4 1.6-1.1 1.2-1.6-.6-1.1 2.9-3.3 5.9-3.8 3.2-.6 3.2-1.2-.2-4.4-3.4-3.1-3.9-4.4-2.2-5.4.6-.3 1 0 1 .8 0 .7.7 1.4 1.5 1.4 1.1 0 1.4-.6.9-1.6-.4-.9-.6-2.4-.6-3.4.1-2.3-1.5-2.2-2.8.4-.7 1.1-1.4 1.8-1.7 1.6-.2-.3 0-1.5.7-2.6.8-1.6.8-2.1-.1-2.1-.8 0-.9-1.1-.5-3.3 1.6-7.2 1.6-8.8.2-7.4-.8.6-1.2 1.5-.9 1.9.2.5-.1.8-.6.8-1.4 0-1.4-1.7-.1-2.5.6-.4.8-1 .5-1.5-.3-.4.8-1.2 2.3-1.8 1.6-.5 2.9-1.7 2.9-2.6 0-1.8-.8-2-2.5-.6-.9.7-.9.7-.2-.2.5-.7 1-1.6 1-2 0-.4-20.9-.8-46.4-.8H81.2l-2.1 6.2zm31.6 40.3c2.1.9 4.5 2.3 5.4 3.1 1 .9 2.3 1.7 3.1 1.8 5.1.8 11.9 9.4 11.1 13.9-.3 1.5-1 2.7-1.7 2.7-.6.1-.2.6.9 1.3 1.1.7 2.1 1.8 2.3 2.5.1.8-.2 1.1-.8.7-.5-.3-1 0-1 .7s1.4 1.9 3.1 2.7l3 1.3-2.1 2.3c-1.2 1.3-1.7 2.4-1.1 2.6.7.3.6 1.3-.3 3.1-1.2 2.3-1.2 2.6 0 2.1 1.6-.6 1.9 2.2.3 3.2-.6.4-.8 1.4-.5 2.2.5 1.1.2 1.3-1 .9-1.5-.6-1.5-.4-.3 1 1.1 1.4 1.1 1.8.1 2.1-.6.3-1 .8-.7 1.3.3.4-.4 1-1.6 1.3-1.7.5-1.8.3-.8-.9s.9-1.3-.6-.8c-1.2.5-1.6.4-1.2-.3.4-.6-.2-1.3-1.2-1.6-2.2-.5-3.1 1-3.1 5.4 0 1.6-.4 2.9-1 2.9-.5 0-1 .7-1 1.5 0 1.7-.9 1.9-2.9.6-.7-.5-1-1.5-.7-2.2.4-.8-.4-.1-1.9 1.6-2.3 2.7-2.7 2.8-3.6 1.2-.5-.9-1.4-1.7-1.9-1.7-1.4 0-11.5-10.1-13.1-13-.7-1.4-1.4-4.3-1.5-6.5-.2-2.2-.6-6-1.1-8.5-.5-2.5-.8-8.6-.8-13.7 0-5-.3-8.6-.7-8-1.4 2.1-.8-.3.7-3.3 3.4-6.7 10.4-8.7 18.2-5.5zm37.7 23c-.4.8-.8 1.5-1 1.5-.2 0-.4-.7-.4-1.5s.4-1.5 1-1.5c.5 0 .7.7.4 1.5zM136 73c0 .5-.2 1-.4 1-.3 0-.8-.5-1.1-1-.3-.6-.1-1 .4-1 .6 0 1.1.4 1.1 1zm11-.6c0 1.1-1.9 1.5-2.5.6-.3-.5.1-1 .9-1 .9 0 1.6.2 1.6.4zm-35.1 38.5c.9.6 1 1.1.2 1.5-.6.4-1.1.2-1.1-.4 0-.6-.4-.9-.9-.5-.5.3-1.2.1-1.6-.5-.8-1.2 1.5-1.3 3.4-.1zm35.8 2.3c-.3.8-.6.5-.6-.6-.1-1.1.2-1.7.5-1.3.3.3.4 1.2.1 1.9zm-29.9 1.7c.3.8-.1 1.2-.9.9-.7-.2-1.5-1-1.7-1.7-.3-.8.1-1.2.9-.9.7.2 1.5 1 1.7 1.7zm39.4 1.7c.2 1.9-.1 4.3-.8 5.2-.8 1.1-.9 2.4-.3 3.9.5 1.3.5 2.3.1 2.3s-1.7.3-2.9.6c-1.7.5-2.3.2-2.3-1 0-1 .6-1.3 1.5-1 1.1.4 1.3.2.9-.9-.3-.8-.1-1.8.5-2.2 1.6-.9 1.3-2.5-.3-1.9-.7.3-1.6-.2-1.9-1-.4-.9-.2-1.6.3-1.6.6 0 1-.7 1-1.5s.5-1.5 1-1.5c.7 0 .7.7-.1 2.1-.9 1.7-.8 2 .3 1.7.7-.3 1.2-1.8 1.2-3.6-.2-4.4 1.3-4 1.8.4zm-7.7 1.4c.3.5-.3 1-1.5 1s-1.8-.5-1.5-1c.3-.6 1-1 1.5-1s1.2.4 1.5 1zm.2 6.6c-.3.3-1.2.4-1.9.1-.8-.3-.5-.6.6-.6 1.1-.1 1.7.2 1.3.5zm-50 19.6c-.3.8-.6.5-.6-.6-.1-1.1.2-1.7.5-1.3.3.3.4 1.2.1 1.9zM167 151c0 .5-.2 1-.4 1-.3 0-.8-.5-1.1-1-.3-.6-.1-1 .4-1 .6 0 1.1.4 1.1 1zm3.4 3c-.6.6-1 .3-1-1s.4-1.6 1-1c.7.7.7 1.3 0 2zm5.3 49.6c-.3.3-1.2.4-1.9.1-.8-.3-.5-.6.6-.6 1.1-.1 1.7.2 1.3.5zm5 1c-.3.3-1.2.4-1.9.1-.8-.3-.5-.6.6-.6 1.1-.1 1.7.2 1.3.5zM106.9 215c-2.8 3.5-4.9 5-4.9 3.5 0-.5 7.2-7.4 7.8-7.5.2 0-1.2 1.8-2.9 4zm64.5-1.9c-.3.5-1 .7-1.5.3-.5-.3-.7-1-.3-1.5.3-.5 1-.7 1.5-.3.5.3.7 1 .3 1.5zm-.4 7.9c.8.5 1.1 1 .5 1-.5 0-1.7-.5-2.5-1s-1-1-.5-1c.6 0 1.7.5 2.5 1z"/><path d="M99.3 49.2C96.9 51.9 95.7 55 97 55c.5 0 1.2-.5 1.5-1 .4-.6 1.1-.7 1.7-.4.6.4 2.5.8 4.1 1 3.6.2 4.8 1.9 4 5.6-.5 2.4-.3 2.7 1.2 2.1 1.4-.5 1.7-.3 1.2 1s-.1 1.7 1.5 1.7c2 0 2 .1.4 1.9-1 1.1-2.8 2.2-4.1 2.5-1.2.3-3 1.7-3.9 3.2l-1.7 2.5 2.7-1.7c2.7-1.8 2.7-1.8 1.5.3-1.9 3.7-1.4 4.5 2.2 3.8 3.2-.7 3.2-.7 1.3 1.3-1.6 1.9-1.7 2.5-.6 5.2.7 1.6 1 3.7.6 4.5-.4 1.2.4 2 2.9 3.1 7.7 3.2 10.9.7 6.4-5-1.8-2.3-2.1-3.6-1.6-8.6.4-5.3.3-5.8-1-4.4-1.8 1.7-3.1 1.1-1.6-.8.5-.7 1-4.4 1.2-8.1.3-7.9-.8-10.2-7.1-14.7-4.9-3.6-7.7-3.8-10.5-.8zm-3 16.8c0 3 .2 4.3.4 2.7.2-1.5.2-3.9 0-5.5-.2-1.5-.4-.2-.4 2.8z"/><path d="M117.4 68.2c-.3.4.2.8 1 .8.9 0 1.6.4 1.6 1 0 1.1 3 1.3 5.4.4.9-.3 1.6-1.2 1.6-2 0-1-1.2-1.4-4.5-1.2-2.5.1-4.8.5-5.1 1zm-21.3 5.4c0 1.1.3 1.4.6.6.3-.7.2-1.6-.1-1.9-.3-.4-.6.2-.5 1.3zM238 .9c0 .5.7 1.4 1.5 2.1.9.7 1.4 1.9 1.1 2.6-.3.7.2 1.5 1 1.8.9.3 1.3 1 .9 1.5-.3.6.4 1.5 1.5 2.1 2 1.1 2.1 1 1-.9-.9-1.8-.8-2.1 1.2-2.1 4 0 5.2-1.6 4.9-6.3C251 .3 250 0 244.5 0c-3.6 0-6.5.4-6.5.9zM14.5 24.7c1.5 3.7 1.7 11.5.4 12.4-1 .6-.9 1.2.6 2.9 2.7 2.9 13.9 8.2 16.6 7.8 2.1-.3 2.5-1 3.2-6.7.8-6.4 0-9-2.3-7.6-.6.4-.8 1.4-.5 2.4.3.9-.1 2.5-.8 3.5-1.3 1.7-1.6 1.7-6.8-.9-6.7-3.4-7.1-4-6.5-9.1.5-4.2-.6-6.4-3.2-6.4-1 0-1.2.6-.7 1.7zM2 48.5c3.3 1.9 4.9 1.9 2.4 0-1-.8-2.6-1.4-3.4-1.4-.9 0-.4.6 1 1.4zM204 50c0 .5-1 1-2.2 1.2-2.2.3-2.1.4.7 2l3 1.7-5 .1c-3.6 0-4.6.3-3.5 1 .8.5 1 1 .5 1-.6 0-1.6-.5-2.1-1-.7-.7-1.7-.5-3 .5-1.7 1.3-1.1 1.5 7.1 1.3 10.2-.1 19.3 1.3 20.5 3.2 1.2 2 8.4 2.4 10 .5 2.4-2.8 1.4-3.6-11.4-9.4-5.1-2.3-14.6-3.7-14.6-2.1zM7.7 51.1c.7.7 1.5 1 1.8.7.3-.3-.2-.9-1.2-1.2-1.4-.6-1.5-.5-.6.5z"/><path d="M205.7 62.6c-7.1 1.7-11.3 3.8-12.7 6.4-.9 1.7-.8 2 1.4 2 1.4 0 3.7-.5 5.3-1.1 3.6-1.4 10.3-2 10.3-.9 0 .4-.9 1-2 1.3-1.8.5-1.9.8-.9 3.1 1 2.1 1.5 2.4 3.2 1.5 1.4-.8 2.2-.8 2.7.1.5.8 1.6 1 2.5.6 1-.3 1.6-.9 1.3-1.2-.3-.3.7-1.8 2.3-3.4 1.6-1.6 2.9-3.7 2.9-4.8 0-1.1.3-2.2.8-2.5.4-.2.2-.3-.3-.1-.6.1-1.9-.4-3-1.2-2.3-1.7-6.2-1.7-13.8.2zm4.3 1.2c0 1-6.8 3.2-9.6 3.2-1.8-.1-1.8-.1.1-1.2 1.1-.7 3.6-1.5 5.5-1.9 1.9-.4 3.6-.7 3.8-.8.1 0 .2.3.2.7zm32.9 3.8c-1.8 1.9-2.8 3.4-2.1 3.4.7 0 1.2.4 1.2 1 0 .5-.7.7-1.5.4-1.7-.7-2 1.3-.5 3.6.8 1.3 1.1 1.3 2.6-.2 1.5-1.4 1.6-2.2.6-4.3-1.2-2.6-1.4-2.5 3.6-2.9 1.2-.1 3.1-2.3 3.2-3.6 0-1.9-4.3-.3-7.1 2.6zM193.5 74c.3.5.8 1 1.1 1 .2 0 .4-.5.4-1 0-.6-.5-1-1.1-1-.5 0-.7.4-.4 1zM56 87c0 1.9.3 2.1 1.2 1.2.9-.9.9-1.5 0-2.4-.9-.9-1.2-.7-1.2 1.2zm101 13.8c.6 1.3 1.4 2.1 1.8 1.8.3-.4-.2-1.4-1.2-2.4-1.8-1.6-1.8-1.6-.6.6zm2.5 11.2c.3.5 1.1 1 1.6 1 .6 0 .7-.5.4-1-.3-.6-1.1-1-1.6-1-.6 0-.7.4-.4 1zm61.5 0c-2.4 1.5.8 6.1 5.5 7.9 2.2.8 4.6 2.2 5.2 3.1 1.1 1.3 1.2 1.1.9-.9-.1-1.4-.9-2.7-1.8-3-2.2-.9-6.3-4.4-7.4-6.3-.6-1.2-1.4-1.4-2.4-.8zm12.8 1.7c-2.1.8-3.8 1.9-3.8 2.3 0 1.2 4.3 1.7 9.1 1.1 3.4-.5 4.5-1.1 4.7-2.6.2-1.6-.4-2-3-2.2-1.8-.1-5 .5-7 1.4zm-69.4 21.7c-.4 1-.2 2.2.5 2.9.6.6 1.1 1.9 1.1 2.9 0 2.2 2.3 2.4 4 .3 1.4-1.6 2.1-6.7.9-5.9-.5.3-.9 1.6-.9 3 0 1.3-.3 2.4-.6 2.4-1.1 0-2.9-2.5-3.2-4.5-.5-2.8-1-3.1-1.8-1.1zm69 1.7c-.5.8-.3.9.7.4 1.1-.6 1.1-.5.3.4-.9 1-1.6 1-3.2 0-1.7-1-2.3-1-3.7.4-2 2.1-3.1 2.1-3.8.3-.6-1.5-1.2-1.4-13.7 3-1.2.4-1.2.7.3 1.6 1.6.9 4.8.6 10.7-.9 1.9-.5 4-.6 11.1-.4l5.6.1-1 4.4c-.5 2.5-2.1 5.7-3.4 7.3l-2.4 2.8.4-2.8c.3-2.2 0-2.8-1.9-3.3-3-.8-5.8.2-4.9 1.7.4.5-.1 1.7-1.1 2.5-1.1.9-1.3 1.2-.5.8.7-.3 1.7 0 2.2.7.7 1.2 1.2 1.2 2.9.1 1.9-1.1 2.2-1.1 2.6.5.4 1.5 1.4 1.7 6.5 1.5l6-.4-3.1-3c-3-2.8-3-3-1.1-3.5 1.4-.4 2.1-1.3 2.1-3 0-2.5 0-2.5 2.6-.8 2.7 1.8 4.3 1.4 2.8-.7-1.7-2.3-1.6-6.9.2-8.9.9-1 1.5-1.9 1.2-1.9-1.4 0-6.8 2.3-6.8 2.8-.1 3.5-5 3.6-5 .2 0-2.3-1.6-3.4-2.6-1.9zm-50.4 9.3c0 .9.5 1.6 1 1.6.6 0 1-.4 1-.9 0-.6-.4-1.3-1-1.6-.5-.3-1 .1-1 .9zm37.2 138.3l.3 14.8 15.8.3c15.8.3 15.8.2 15.2-1.9-.4-1.1-1.5-4.9-2.5-8.3-2.4-8.4-4.4-12-8.1-14.6-3.9-2.9-11.1-5-16.6-5h-4.4l.3 14.7z"/></svg>